<svg width="24" height="24" viewBox="0 0 24 24" fill="none" xmlns="http://www.w3.org/2000/svg">
  <rect x="2" y="2" width="20" height="20" rx="10" fill="#111111"/>
  <path d="M15.52 12.72C15.53 10.92 17 10.06 17.07 10.02C16.23 8.79 14.92 8.63 14.46 8.61C13.35 8.5 12.27 9.28 11.71 9.28C11.14 9.28 10.29 8.63 9.35 8.65C8.15 8.67 7.03 9.35 6.42 10.42C5.17 12.58 6.1 15.78 7.32 17.55C7.91 18.42 8.62 19.4 9.56 19.37C10.47 19.33 10.82 18.8 11.92 18.8C13.02 18.8 13.33 19.37 14.3 19.35C15.28 19.33 15.89 18.45 16.48 17.58C17.16 16.58 17.45 15.61 17.47 15.56C17.45 15.55 15.54 14.81 15.52 12.72Z" fill="white"/>
  <path d="M13.73 7.45C14.23 6.84 14.57 5.99 14.48 5.14C13.75 5.17 12.86 5.63 12.33 6.24C11.84 6.79 11.41 7.66 11.51 8.49C12.32 8.55 13.22 8.06 13.73 7.45Z" fill="white"/>
</svg>
