<svg width="24" height="24" viewBox="0 0 24 24" fill="none" xmlns="http://www.w3.org/2000/svg">
  <path d="M21.52 12.27C21.52 11.45 21.45 10.66 21.3 9.91H12V13.73H17.32C17.09 14.96 16.39 16 15.34 16.7V19.18H18.54C20.41 17.45 21.52 15.02 21.52 12.27Z" fill="#4285F4"/>
  <path d="M12 22C14.67 22 16.91 21.12 18.54 19.18L15.34 16.7C14.46 17.29 13.34 17.64 12 17.64C9.43 17.64 7.25 15.9 6.47 13.56H3.17V16.12C4.79 19.34 8.13 22 12 22Z" fill="#34A853"/>
  <path d="M6.47 13.56C6.27 12.97 6.15 12.34 6.15 11.69C6.15 11.04 6.27 10.41 6.47 9.82V7.26H3.17C2.5 8.59 2.12 10.1 2.12 11.69C2.12 13.28 2.5 14.79 3.17 16.12L6.47 13.56Z" fill="#FBBC05"/>
  <path d="M12 5.74C13.46 5.74 14.77 6.24 15.8 7.22L18.61 4.41C16.9 2.82 14.67 1.84 12 1.84C8.13 1.84 4.79 4.5 3.17 7.26L6.47 9.82C7.25 7.48 9.43 5.74 12 5.74Z" fill="#EA4335"/>
</svg>
