<svg xmlns="http://www.w3.org/2000/svg" viewBox="0 0 582 546" width="582" height="546" shape-rendering="geometricPrecision">
  <rect width="582" height="546" fill="#000000"/>
  <path d="M 287 103 L 286 104 L 272 104 L 271 105 L 262 105 L 261 106 L 252 107 L 251 108 L 248 108 L 247 109 L 243 109 L 239 111 L 236 111 L 235 112 L 229 113 L 226 115 L 221 116 L 218 118 L 216 118 L 200 126 L 198 128 L 190 132 L 188 134 L 184 136 L 181 139 L 180 139 L 177 142 L 176 142 L 171 147 L 170 147 L 154 163 L 154 164 L 148 170 L 148 171 L 145 174 L 145 175 L 137 186 L 136 189 L 134 191 L 128 203 L 128 205 L 125 210 L 125 212 L 123 215 L 123 217 L 121 221 L 121 224 L 120 225 L 120 228 L 119 229 L 119 232 L 118 233 L 118 237 L 117 238 L 117 243 L 116 244 L 116 254 L 115 255 L 115 274 L 116 275 L 116 284 L 117 285 L 117 292 L 118 293 L 118 296 L 119 297 L 119 301 L 120 302 L 120 305 L 121 306 L 121 308 L 123 312 L 123 315 L 125 318 L 125 320 L 127 323 L 127 325 L 135 341 L 137 343 L 140 349 L 143 352 L 145 356 L 154 366 L 154 367 L 166 379 L 167 379 L 177 388 L 178 388 L 181 391 L 182 391 L 185 394 L 186 394 L 191 398 L 203 404 L 205 406 L 209 407 L 221 413 L 223 413 L 224 414 L 226 414 L 227 415 L 229 415 L 230 416 L 232 416 L 233 417 L 235 417 L 239 419 L 247 420 L 248 421 L 251 421 L 252 422 L 266 423 L 267 424 L 282 424 L 283 425 L 294 425 L 295 424 L 311 424 L 312 423 L 324 422 L 325 421 L 329 421 L 330 420 L 334 420 L 335 419 L 338 419 L 342 417 L 345 417 L 348 415 L 351 415 L 354 413 L 356 413 L 359 411 L 361 411 L 375 404 L 377 402 L 380 401 L 382 399 L 385 398 L 388 395 L 389 395 L 390 392 L 385 387 L 385 386 L 373 372 L 373 371 L 370 368 L 370 367 L 367 364 L 367 363 L 364 360 L 364 359 L 356 349 L 355 349 L 352 352 L 342 357 L 340 357 L 337 359 L 335 359 L 332 361 L 328 361 L 324 363 L 320 363 L 319 364 L 315 364 L 314 365 L 306 365 L 305 366 L 294 366 L 293 367 L 287 367 L 286 366 L 267 365 L 266 364 L 262 364 L 261 363 L 258 363 L 254 361 L 248 360 L 245 358 L 243 358 L 227 350 L 225 348 L 218 344 L 214 340 L 213 340 L 202 329 L 202 328 L 198 324 L 198 323 L 195 320 L 195 319 L 191 314 L 185 302 L 185 300 L 183 297 L 182 291 L 180 287 L 180 283 L 179 282 L 179 275 L 178 274 L 178 251 L 179 250 L 179 245 L 180 244 L 180 241 L 182 237 L 182 234 L 183 233 L 184 228 L 190 216 L 192 214 L 195 208 L 199 204 L 199 203 L 215 187 L 216 187 L 220 183 L 221 183 L 226 179 L 229 178 L 231 176 L 241 171 L 243 171 L 246 169 L 251 168 L 254 166 L 257 166 L 258 165 L 260 165 L 261 164 L 265 164 L 266 163 L 270 163 L 271 162 L 293 161 L 294 162 L 306 162 L 307 163 L 311 163 L 312 164 L 317 164 L 318 165 L 321 165 L 322 166 L 324 166 L 325 167 L 333 169 L 338 172 L 340 172 L 344 174 L 346 176 L 356 181 L 359 184 L 360 184 L 363 187 L 364 187 L 383 206 L 388 215 L 454 215 L 455 214 L 455 212 L 454 211 L 453 206 L 448 196 L 446 194 L 444 189 L 442 187 L 439 181 L 436 178 L 434 174 L 430 170 L 430 169 L 426 165 L 426 164 L 410 148 L 409 148 L 404 143 L 403 143 L 396 137 L 395 137 L 384 129 L 381 128 L 379 126 L 365 119 L 363 119 L 358 116 L 356 116 L 350 113 L 347 113 L 346 112 L 344 112 L 340 110 L 332 109 L 331 108 L 328 108 L 327 107 L 316 106 L 315 105 L 307 105 L 306 104 L 296 104 L 295 103 Z" fill="#ffffff"/>
  <path d="M 231 247 L 231 257 L 232 258 L 232 264 L 231 265 L 231 274 L 232 275 L 232 296 L 234 297 L 235 296 L 307 296 L 308 297 L 316 297 L 317 298 L 322 298 L 323 299 L 326 299 L 332 302 L 334 302 L 340 305 L 342 307 L 345 308 L 354 316 L 355 316 L 369 330 L 369 331 L 377 340 L 377 341 L 380 344 L 380 345 L 383 348 L 383 349 L 386 352 L 386 353 L 391 358 L 391 359 L 399 368 L 399 369 L 409 379 L 409 380 L 411 382 L 412 382 L 419 389 L 420 389 L 427 395 L 445 405 L 447 405 L 450 407 L 456 408 L 460 410 L 470 411 L 471 412 L 489 412 L 487 408 L 479 399 L 479 398 L 477 396 L 475 392 L 472 389 L 471 386 L 467 381 L 466 378 L 461 371 L 459 366 L 457 364 L 453 355 L 451 353 L 441 333 L 439 331 L 436 324 L 434 322 L 432 317 L 430 315 L 430 314 L 428 312 L 424 305 L 420 301 L 420 300 L 416 295 L 415 292 L 407 283 L 407 282 L 395 270 L 394 270 L 390 266 L 389 266 L 386 263 L 385 263 L 380 259 L 375 257 L 371 254 L 369 254 L 361 250 L 355 249 L 354 248 L 351 248 L 350 247 L 346 247 L 345 246 L 340 246 L 339 245 L 233 245 Z" fill="#ffffff"/>
</svg>
